<svg xmlns="http://www.w3.org/2000/svg" width="844" height="844"><defs><clipPath id="a"><path fill="none" d="M38.942 53.4H694.99v740.2H38.94V53.4z"/></clipPath></defs><path fill="#FFF" paint-order="stroke fill markers" d="M-.5-.5h845v845H-.5z"/><path fill="none" stroke="#CCC" paint-order="fill stroke markers" d="M38.942 794.5H694.99M38.942 757.5H694.99M38.942 720.5H694.99M38.942 683.5H694.99M38.942 646.5H694.99M38.942 609.5H694.99M38.942 572.5H694.99M38.942 535.5H694.99M38.942 498.5H694.99M38.942 461.5H694.99M38.942 424.5H694.99M38.942 386.5H694.99M38.942 349.5H694.99M38.942 312.5H694.99M38.942 275.5H694.99M38.942 238.5H694.99M38.942 201.5H694.99M38.942 164.5H694.99M38.942 127.5H694.99M38.942 90.5H694.99M38.942 53.5H694.99" stroke-miterlimit="10" stroke-width=".333"/><path fill="none" stroke="#CCC" paint-order="fill stroke markers" d="M38.942 794.5H694.99M33.842 794.5h5.1M38.942 609.5H694.99M33.842 609.5h5.1M38.942 424.5H694.99M33.842 424.5h5.1M38.942 238.5H694.99M33.842 238.5h5.1M38.942 53.5H694.99M33.842 53.5h5.1" stroke-miterlimit="10"/><g clip-path="url(#a)"><path fill="#FE296C" stroke="#000" paint-order="fill stroke markers" d="M81.945 404.995q-3.84-12.877-4.907-18.505c-1.04-5.475-1.272-12.986-2.12-18.505-.86-5.584-1.83-13.17-3.577-18.505-1.89-5.77-8.635-12.99-8.545-18.505.09-5.587 7.454-12.66 9.15-18.505 1.523-5.258.436-13.093 1.58-18.505 1.2-5.69 5.266-12.804 6.236-18.505q.92-5.402.064-18.505h5.697q-.856 13.103.063 18.505c.97 5.7 5.036 12.814 6.238 18.505 1.144 5.412.057 13.247 1.58 18.505 1.695 5.845 9.06 12.918 9.15 18.505.09 5.516-6.657 12.736-8.546 18.505-1.747 5.334-2.717 12.92-3.576 18.505-.85 5.52-1.08 13.03-2.12 18.505q-1.07 5.628-4.908 18.505h-1.455M301.322 377.238q-3.84-32.578-6.78-46.263c-3.024-14.072-11.352-32.12-13.097-46.263-1.68-13.615.347-32.463 1.678-46.262 1.346-13.958 5.07-32.384 7.247-46.262 2.176-13.88 5.61-32.322 7.26-46.263q1.634-13.816 3.692-46.262 2.058 32.446 3.694 46.262c1.65 13.94 5.082 32.383 7.258 46.262 2.176 13.88 5.9 32.305 7.248 46.263 1.33 13.8 3.358 32.647 1.678 46.262-1.746 14.142-10.073 32.19-13.097 46.263q-2.94 13.685-6.78 46.262M519.972 377.238q-1.11-32.382-1.404-46.263c-.294-13.876.778-32.496-.555-46.263-1.355-13.99-5.722-32.414-8.404-46.262-2.694-13.91-9.81-32.448-9.515-46.262.297-13.943 9.31-32.19 11.484-46.263 2.113-13.684 1.76-32.4 2.808-46.262q1.05-13.895 4.18-46.263h2.808q3.13 32.368 4.18 46.263c1.048 13.863.695 32.578 2.81 46.262 2.173 14.073 11.187 32.32 11.484 46.262.294 13.815-6.82 32.353-9.515 46.263-2.68 13.848-7.05 32.272-8.403 46.262-1.333 13.767-.262 32.387-.556 46.263q-.294 13.88-1.404 46.262" fill-opacity=".25" stroke-linejoin="mitter" stroke-miterlimit="10"/><path fill="#487EB6" stroke="#000" paint-order="fill stroke markers" d="M125.482 590.045q-.137-12.957 0-18.505c.138-5.555.92-12.953.92-18.505 0-5.55 0-13.438-.92-18.505-2.11-6.036-10.14-12.467-12.025-18.505-1.58-5.065 1.473-13.16.47-18.505-1.077-5.757-7.405-12.955-7.402-18.505.003-5.553 5.92-12.767 7.426-18.505 1.41-5.365 1.07-13.072 2.29-18.505 1.27-5.67 4.807-12.828 6.012-18.505 1.15-5.426 1.425-12.943 1.84-18.505q.413-5.54.92-18.505h2.78q.508 12.964.92 18.505c.416 5.562.69 13.08 1.84 18.505 1.205 5.677 4.742 12.835 6.013 18.505 1.22 5.433.88 13.14 2.29 18.505 1.505 5.738 7.42 12.952 7.425 18.505.003 5.55-6.326 12.748-7.404 18.505-1 5.346 2.052 13.44.47 18.505-1.884 6.038-9.913 12.47-12.024 18.505-.92 5.067-.92 12.953-.92 18.505s.782 12.95.92 18.505q.138 5.548 0 18.505h-1.84M343.6 608.55q-2.634-12.98-3.93-18.505c-1.308-5.58-3.78-12.876-4.753-18.505-.948-5.474-.416-13.12-1.65-18.505-1.312-5.718-5.585-12.782-6.836-18.505-1.175-5.38-2.753-13.448-1.255-18.505 1.79-6.046 9.392-12.565 12.217-18.505q2.455-5.163 5.382-18.505h4.557q2.928 13.342 5.383 18.505c2.824 5.94 10.426 12.46 12.217 18.505 1.497 5.057-.08 13.125-1.257 18.505-1.25 5.723-5.524 12.787-6.835 18.505-1.234 5.385-.703 13.03-1.65 18.505-.974 5.63-3.445 12.926-4.754 18.505q-1.296 5.524-3.928 18.505H343.6M562.354 590.045q-.19-13.052-1.115-18.505c-.96-5.65-3.382-13.028-5.16-18.505-1.828-5.626-5-12.888-6.86-18.505-1.817-5.486-5.894-13.125-5.395-18.505.53-5.723 6.474-12.83 8.824-18.505 2.248-5.43 5.02-12.832 6.508-18.505 1.424-5.43 2.917-12.92 3.196-18.505q.275-5.518-1.35-18.505h5.395q-1.625 12.987-1.35 18.505c.28 5.585 1.773 13.075 3.197 18.505 1.487 5.673 4.26 13.076 6.508 18.505 2.35 5.674 8.294 12.782 8.825 18.505.498 5.38-3.578 13.02-5.395 18.505-1.86 5.617-5.032 12.88-6.86 18.505-1.778 5.477-4.202 12.855-5.16 18.505q-.924 5.453-1.114 18.505h-2.696" fill-opacity=".25" stroke-linejoin="mitter" stroke-miterlimit="10"/><path fill="#A7CE31" stroke="#000" paint-order="fill stroke markers" d="M168.603 701.075q.228-6.495 0-9.253c-.23-2.794-.322-6.817-1.53-9.252-1.544-3.116-5.225-6.59-7.644-9.253-2.627-2.89-7.566-6.006-9.175-9.252-1.143-2.305-1.143-6.947 0-9.253 1.61-3.246 6.87-6.155 9.174-9.252 1.824-2.455 3.038-6.576 4.586-9.253 1.663-2.874 5.628-6.297 6.116-9.252q0-2.596-3.058-9.253h6.116q-3.058 6.657-3.058 9.253c.49 2.955 4.454 6.378 6.116 9.252 1.55 2.677 2.762 6.798 4.587 9.253 2.303 3.097 7.565 6.006 9.175 9.253 1.142 2.305 1.142 6.947 0 9.252-1.61 3.246-6.548 6.363-9.175 9.252-2.42 2.662-6.1 6.137-7.645 9.253-1.207 2.435-1.298 6.458-1.53 9.252q-.227 2.758 0 9.253h-3.057M387.318 516.025q-1.223-32.544-3.282-46.262c-2.107-14.04-8.312-32.24-10.606-46.263-2.246-13.734-5.99-32.676-4.525-46.262 1.53-14.172 11.467-32.105 14.51-46.263q2.92-13.6 5.367-46.263 2.447 32.663 5.37 46.263c3.04 14.158 12.978 32.09 14.508 46.262 1.466 13.587-2.28 32.53-4.526 46.263-2.293 14.023-8.498 32.223-10.605 46.262q-2.06 13.72-3.283 46.263h-2.93M605.945 377.238q-15.827-31.88-18.39-46.263c-2.384-13.376.628-32.45 1.903-46.263 1.286-13.943 4.62-32.387 6.636-46.262 2.018-13.882 5.297-32.326 6.812-46.262q1.503-13.822 3.247-46.263h2.56q1.743 32.44 3.246 46.262c1.514 13.937 4.793 32.38 6.81 46.263 2.017 13.875 5.35 32.32 6.637 46.262 1.275 13.814 4.286 32.887 1.903 46.263q-2.563 14.382-18.39 46.262h-2.975" fill-opacity=".25" stroke-linejoin="mitter" stroke-miterlimit="10"/><path fill="#F8CC03" stroke="#000" paint-order="fill stroke markers" d="M210.435 784.347q3.427-4.015 3.427-4.626c-3.85-2.164-19.877-3.237-19.877-4.625s16.467-2.534 19.877-4.626c0-.685-4.798-3.24-4.798-4.628 0-1.387 4.798-3.238 4.798-4.626 0-1.388-4.798-3.238-4.798-4.626 0-1.388 4.073-2.995 4.798-4.626 0-1.145-.685-3.24-.685-4.627 0-1.387.685-3.238.685-4.626 0-1.387-.685-3.237-.685-4.625q0-1.388.685-4.626.686 3.237.686 4.625c0 1.388-.686 3.238-.686 4.626 0 1.39.686 3.24.686 4.627 0 1.388-.686 3.482-.686 4.627.725 1.63 4.798 3.238 4.798 4.626 0 1.388-4.798 3.238-4.798 4.626 0 1.388 4.798 3.24 4.798 4.626 0 1.388-4.798 3.943-4.798 4.627 3.41 2.09 19.878 3.237 19.878 4.625s-16.03 2.46-19.878 4.626q0 .612 3.427 4.627h-6.855M412.635 701.075q5.68-12.953 5.68-18.505c0-5.55-6.483-13.272-5.68-18.505.9-5.87 8.656-12.635 11.358-18.505 2.41-5.233 4.38-12.86 5.68-18.505q1.256-5.46 2.84-18.505 1.582 13.046 2.84 18.505c1.298 5.644 3.27 13.272 5.678 18.505 2.703 5.87 10.46 12.635 11.36 18.505.803 5.233-5.68 12.953-5.68 18.505q0 5.55 5.68 18.505h-39.755M651.162 682.57q-2.224-12.925-2.732-18.505c-.503-5.523 1.562-13.76-.637-18.505-2.944-6.357-14.4-12.212-16.508-18.505-1.61-4.81 3.122-12.91 4.118-18.505.98-5.51 1.813-12.944 2.47-18.505.657-5.542.298-13.26 1.91-18.505q1.802-5.86 9.47-18.505h3.818q7.67 12.646 9.47 18.505c1.613 5.244 1.254 12.963 1.91 18.505.658 5.56 1.49 12.996 2.47 18.505.997 5.594 5.73 13.695 4.12 18.505-2.107 6.293-13.564 12.148-16.51 18.505-2.198 4.746-.132 12.982-.635 18.505q-.508 5.58-2.733 18.505" fill-opacity=".25" stroke-linejoin="mitter" stroke-miterlimit="10"/><path fill="none" stroke="#000" paint-order="fill stroke markers" d="M75.884 311.97H89.46v38.01H75.885z" stroke-linejoin="mitter" stroke-miterlimit="10"/><path fill="none" stroke="#000" paint-order="fill stroke markers" d="M76.384 331.5H88.96M83.5 350v46M86.5 396.5h-7M83.5 313v-56M86.5 257.5h-7" stroke-miterlimit="10"/><path fill="none" stroke="#000" paint-order="fill stroke markers" d="M294.534 210.192h13.577v65.768h-13.576z" stroke-linejoin="mitter" stroke-miterlimit="10"/><path fill="none" stroke="#000" paint-order="fill stroke markers" d="M295.034 248.5h12.577M302.5 276v65M305.5 341.5h-7M302.5 211v-65M305.5 146.5h-7" stroke-miterlimit="10"/><path fill="none" stroke="#000" paint-order="fill stroke markers" d="M513.184 154.677h13.577v65.768h-13.576z" stroke-linejoin="mitter" stroke-miterlimit="10"/><path fill="none" stroke="#000" paint-order="fill stroke markers" d="M513.684 192.5h12.577M520.5 220v56M523.5 276.5h-7M520.5 156V63M523.5 63.5h-7" stroke-miterlimit="10"/><path fill="none" stroke="#000" paint-order="fill stroke markers" d="M119.614 450.757h13.577v47.263h-13.576z" stroke-linejoin="mitter" stroke-miterlimit="10"/><path fill="none" stroke="#000" paint-order="fill stroke markers" d="M120.114 479.5h12.577M127.5 498v28M130.5 526.5h-7M127.5 452v-65M130.5 387.5h-7" stroke-miterlimit="10"/><path fill="none" stroke="#000" paint-order="fill stroke markers" d="M338.264 515.525h13.577v47.263h-13.576z" stroke-linejoin="mitter" stroke-miterlimit="10"/><path fill="none" stroke="#000" paint-order="fill stroke markers" d="M338.764 535.5h12.577M346.5 563v46M349.5 609.5h-7M346.5 517v-37M349.5 480.5h-7" stroke-miterlimit="10"/><path fill="none" stroke="#000" paint-order="fill stroke markers" d="M556.914 497.02h13.577v38.01h-13.576z" stroke-linejoin="mitter" stroke-miterlimit="10"/><path fill="none" stroke="#000" paint-order="fill stroke markers" d="M557.414 516.5h12.577M564.5 535v56M567.5 591.5h-7M564.5 498v-55M567.5 443.5h-7" stroke-miterlimit="10"/><path fill="none" stroke="#000" paint-order="fill stroke markers" d="M163.344 645.06h13.577v19.505h-13.576z" stroke-linejoin="mitter" stroke-miterlimit="10"/><path fill="none" stroke="#000" paint-order="fill stroke markers" d="M163.844 655.5h12.577M171.5 665v27M174.5 692.5h-7M171.5 646v-28M174.5 618.5h-7" stroke-miterlimit="10"/><path fill="none" stroke="#000" paint-order="fill stroke markers" d="M381.994 367.485h13.577V424h-13.576z" stroke-linejoin="mitter" stroke-miterlimit="10"/><path fill="none" stroke="#000" paint-order="fill stroke markers" d="M382.494 391.5h12.577M389.5 424v65M392.5 489.5h-7M389.5 368v-46M392.5 322.5h-7" stroke-miterlimit="10"/><path fill="none" stroke="#000" paint-order="fill stroke markers" d="M600.644 247.202h13.577v75.02h-13.576z" stroke-linejoin="mitter" stroke-miterlimit="10"/><path fill="none" stroke="#000" paint-order="fill stroke markers" d="M601.144 280.5h12.577M608.5 322v56M611.5 378.5h-7M608.5 248v-92M611.5 156.5h-7" stroke-miterlimit="10"/><g><path fill="none" stroke="#000" paint-order="fill stroke markers" d="M207.074 765.342h13.577v10.253h-13.576z" stroke-linejoin="mitter" stroke-miterlimit="10"/></g><path fill="none" stroke="#000" paint-order="fill stroke markers" d="M207.574 775.5h12.577M214.5 776v9M217.5 785.5h-7M214.5 766v-9M217.5 757.5h-7" stroke-miterlimit="10"/><g><path fill="none" stroke="#000" paint-order="fill stroke markers" d="M425.724 654.313H439.3v28.757h-13.576z" stroke-linejoin="mitter" stroke-miterlimit="10"/></g><path fill="none" stroke="#000" paint-order="fill stroke markers" d="M426.224 673.5H438.8M433.5 683v19M436.5 702.5h-7M433.5 655v-27M436.5 628.5h-7" stroke-miterlimit="10"/><g><path fill="none" stroke="#000" paint-order="fill stroke markers" d="M644.374 580.293h13.577v47.262h-13.576z" stroke-linejoin="mitter" stroke-miterlimit="10"/></g><path fill="none" stroke="#000" paint-order="fill stroke markers" d="M644.874 609.5h12.577M652.5 628v37M655.5 665.5h-7M652.5 581v-18M655.5 563.5h-7" stroke-miterlimit="10"/></g><text font-family="Arial" font-size="15" font-weight="bold" text-decoration="normal" text-anchor="end" dominant-baseline="central" transform="translate(28.742 793.6)">0</text><text font-family="Arial" font-size="15" font-weight="bold" text-decoration="normal" text-anchor="end" dominant-baseline="central" transform="translate(28.742 608.55)">2</text><text font-family="Arial" font-size="15" font-weight="bold" text-decoration="normal" text-anchor="end" dominant-baseline="central" transform="translate(28.742 423.5)">4</text><text font-family="Arial" font-size="15" font-weight="bold" text-decoration="normal" text-anchor="end" dominant-baseline="central" transform="translate(28.742 238.45)">6</text><text font-family="Arial" font-size="15" font-weight="bold" text-decoration="normal" text-anchor="end" dominant-baseline="central" transform="translate(28.742 53.4)">8</text><text font-family="Arial" font-size="15" text-decoration="normal" text-anchor="middle" dominant-baseline="central" transform="translate(372.066 826.3)">Species</text><text font-family="Arial" font-size="15" font-style="italic" text-decoration="normal" text-anchor="middle" dominant-baseline="central" transform="translate(153.367 808.9)">setosa</text><text font-family="Arial" font-size="15" font-style="italic" text-decoration="normal" text-anchor="middle" dominant-baseline="central" transform="translate(372.017 808.9)">versicolor</text><text font-family="Arial" font-size="15" font-style="italic" text-decoration="normal" text-anchor="middle" dominant-baseline="central" transform="translate(590.667 808.9)">virginica</text><text font-family="Arial" font-size="9" text-decoration="normal" text-anchor="middle" dominant-baseline="central" transform="translate(301.36 682.57)">Species with\nlowest petal\nwidth</text><path fill="none" stroke="#000" paint-order="fill stroke markers" d="M234.325 692.5h134.072M213.862 770.47l87.5-78.3" stroke-miterlimit="10"/><path fill="none" paint-order="fill stroke markers" d="M699.5 375.5h135v96h-135z"/><path fill="#FE296C" stroke="#000" paint-order="fill stroke markers" d="M704.69 380.55h16v16h-16z" stroke-linejoin="mitter" stroke-miterlimit="10"/><text font-family="Arial" font-size="15" text-decoration="normal" dominant-baseline="central" transform="translate(735.19 388.55)">Sepal.Length</text><path fill="#487EB6" stroke="#000" paint-order="fill stroke markers" d="M704.69 403.05h16v16h-16z" stroke-linejoin="mitter" stroke-miterlimit="10"/><text font-family="Arial" font-size="15" text-decoration="normal" dominant-baseline="central" transform="translate(735.19 411.05)">Sepal.Width</text><path fill="#A7CE31" stroke="#000" paint-order="fill stroke markers" d="M704.69 425.55h16v16h-16z" stroke-linejoin="mitter" stroke-miterlimit="10"/><g><text font-family="Arial" font-size="15" text-decoration="normal" dominant-baseline="central" transform="translate(735.19 433.55)">Petal.Length</text></g><g><path fill="#F8CC03" stroke="#000" paint-order="fill stroke markers" d="M704.69 448.05h16v16h-16z" stroke-linejoin="mitter" stroke-miterlimit="10"/></g><g><text font-family="Arial" font-size="15" text-decoration="normal" dominant-baseline="central" transform="translate(735.19 456.05)">Petal.Width</text></g><g><text font-family="Arial" font-size="33" text-decoration="normal" text-anchor="middle" dominant-baseline="central" transform="translate(422 21.6)">Iris flower data set</text></g></svg>