<svg xmlns="http://www.w3.org/2000/svg" width="540" height="540"><defs><clipPath id="a"><path fill="none" d="M24.762 35.8H441.86v471.4H24.762V35.8z"/></clipPath></defs><path fill="#FFF" paint-order="stroke fill markers" d="M-.5-.5h541v541H-.5z"/><path fill="none" stroke="#CCC" paint-order="fill stroke markers" d="M24.762 507.5H441.86M24.762 484.5H441.86M24.762 460.5H441.86M24.762 436.5H441.86M24.762 413.5H441.86M24.762 389.5H441.86M24.762 366.5H441.86M24.762 342.5H441.86M24.762 319.5H441.86M24.762 295.5H441.86M24.762 272.5H441.86M24.762 248.5H441.86M24.762 224.5H441.86M24.762 201.5H441.86M24.762 177.5H441.86M24.762 154.5H441.86M24.762 130.5H441.86M24.762 107.5H441.86M24.762 83.5H441.86M24.762 59.5H441.86M24.762 36.5H441.86" stroke-miterlimit="10" stroke-width=".333"/><path fill="none" stroke="#CCC" paint-order="fill stroke markers" d="M24.762 507.5H441.86M21.562 507.5h3.2M24.762 389.5H441.86M21.562 389.5h3.2M24.762 272.5H441.86M21.562 272.5h3.2M24.762 154.5H441.86M21.562 154.5h3.2M24.762 36.5H441.86M21.562 36.5h3.2" stroke-miterlimit="10"/><g clip-path="url(#a)"><path fill="#FE296C" stroke="#000" paint-order="fill stroke markers" d="M52.099 259.715q-2.44-8.201-3.12-11.785c-.66-3.487-.808-8.27-1.348-11.785-.546-3.556-1.162-8.387-2.273-11.785-1.201-3.673-5.49-8.272-5.433-11.785.058-3.558 4.74-8.063 5.816-11.785.97-3.35.278-8.338 1.005-11.785.764-3.624 3.348-8.155 3.965-11.785q.585-3.44.04-11.785h3.621q-.545 8.344.04 11.785c.617 3.63 3.201 8.161 3.965 11.785.727 3.447.036 8.436 1.005 11.785 1.077 3.722 5.758 8.227 5.816 11.785.057 3.513-4.232 8.112-5.433 11.785-1.11 3.398-1.727 8.229-2.273 11.785-.54 3.515-.687 8.298-1.348 11.785q-.68 3.584-3.12 11.785H52.1M191.562 242.038q-2.442-20.747-4.311-29.463c-1.922-8.962-7.216-20.457-8.326-29.462-1.068-8.672.22-20.675 1.067-29.463.856-8.89 3.224-20.624 4.607-29.463 1.383-8.838 3.565-20.584 4.615-29.462q1.04-8.8 2.348-29.463 1.308 20.664 2.348 29.463c1.049 8.878 3.23 20.624 4.614 29.463 1.383 8.838 3.751 20.573 4.607 29.462.846 8.788 2.135 20.79 1.067 29.463-1.11 9.005-6.404 20.5-8.326 29.462q-1.869 8.716-4.31 29.463M330.562 242.038q-.706-20.623-.893-29.463c-.187-8.837.494-20.695-.353-29.462-.861-8.91-3.638-20.644-5.342-29.463-1.713-8.858-6.236-20.664-6.049-29.463.189-8.879 5.919-20.5 7.3-29.462 1.345-8.715 1.12-20.634 1.786-29.463q.667-8.848 2.658-29.462h1.785q1.99 20.614 2.658 29.462c.666 8.83.441 20.748 1.785 29.463 1.382 8.962 7.112 20.583 7.3 29.463.188 8.798-4.335 20.604-6.047 29.462-1.705 8.819-4.482 20.553-5.343 29.463-.847 8.767-.166 20.625-.353 29.462q-.187 8.84-.892 29.463" fill-opacity=".25" stroke-linejoin="mitter" stroke-miterlimit="10"/><path fill="#487EB6" stroke="#000" paint-order="fill stroke markers" d="M79.777 377.565q-.088-8.252 0-11.785c.088-3.538.585-8.25.585-11.785 0-3.536 0-8.557-.585-11.785-1.342-3.843-6.447-7.94-7.645-11.785-1.005-3.226.936-8.38.3-11.785-.686-3.666-4.709-8.25-4.707-11.785.002-3.536 3.764-8.131 4.72-11.785.896-3.417.68-8.325 1.456-11.785.808-3.61 3.056-8.17 3.822-11.785.732-3.456.906-8.243 1.17-11.785q.262-3.529.584-11.785h1.769q.322 8.256.585 11.785c.263 3.542.437 8.33 1.17 11.785.765 3.615 3.013 8.174 3.821 11.785.775 3.46.56 8.368 1.455 11.785.957 3.654 4.719 8.249 4.72 11.785.003 3.535-4.02 8.12-4.706 11.785-.636 3.405 1.305 8.559.3 11.785-1.198 3.845-6.303 7.942-7.645 11.785-.584 3.228-.584 8.25-.584 11.785s.497 8.247.584 11.785q.088 3.533 0 11.785h-1.17M218.438 389.35q-1.674-8.267-2.498-11.785c-.832-3.553-2.403-8.2-3.022-11.785-.602-3.486-.264-8.355-1.05-11.785-.832-3.641-3.549-8.14-4.344-11.785-.748-3.427-1.751-8.563-.799-11.785 1.138-3.85 5.971-8.003 7.767-11.785q1.56-3.289 3.421-11.785h2.897q1.86 8.496 3.421 11.785c1.796 3.782 6.629 7.936 7.767 11.785.952 3.222-.05 8.358-.799 11.785-.795 3.644-3.512 8.144-4.345 11.785-.785 3.43-.447 8.299-1.049 11.785-.62 3.585-2.19 8.232-3.022 11.785q-.824 3.518-2.498 11.785h-1.847M357.504 377.565q-.12-8.312-.708-11.785c-.61-3.598-2.15-8.297-3.28-11.785-1.162-3.583-3.18-8.208-4.362-11.785-1.154-3.494-3.746-8.358-3.429-11.785.337-3.644 4.116-8.172 5.61-11.785 1.43-3.458 3.192-8.173 4.138-11.785.905-3.459 1.854-8.228 2.031-11.785q.175-3.514-.857-11.785h3.43q-1.033 8.27-.858 11.785c.177 3.557 1.126 8.326 2.031 11.785.946 3.612 2.708 8.327 4.138 11.785 1.494 3.613 5.273 8.14 5.61 11.785.317 3.427-2.275 8.291-3.43 11.785-1.182 3.577-3.199 8.202-4.36 11.785-1.131 3.488-2.672 8.187-3.28 11.785q-.588 3.473-.71 11.785h-1.714" fill-opacity=".25" stroke-linejoin="mitter" stroke-miterlimit="10"/><path fill="#A7CE31" stroke="#000" paint-order="fill stroke markers" d="M107.19 448.275q.144-4.137 0-5.892c-.147-1.78-.205-4.342-.973-5.893-.981-1.984-3.322-4.197-4.86-5.893-1.67-1.84-4.81-3.825-5.832-5.892-.727-1.469-.727-4.424 0-5.892 1.023-2.067 4.369-3.921 5.832-5.893 1.161-1.564 1.932-4.188 2.916-5.893 1.057-1.83 3.578-4.01 3.889-5.892q0-1.654-1.945-5.893h3.889q-1.944 4.24-1.944 5.893c.31 1.882 2.83 4.062 3.888 5.892.984 1.705 1.755 4.33 2.916 5.893 1.463 1.972 4.81 3.826 5.832 5.892.727 1.47.727 4.424 0 5.893-1.023 2.067-4.163 4.052-5.832 5.892-1.538 1.696-3.879 3.909-4.86 5.893-.768 1.551-.826 4.113-.972 5.892q-.145 1.756 0 5.893h-1.945M246.23 330.425q-.777-20.725-2.086-29.463c-1.34-8.94-5.284-20.531-6.742-29.462-1.428-8.747-3.809-20.81-2.877-29.462.972-9.025 7.29-20.447 9.224-29.463q1.857-8.662 3.413-29.462 1.555 20.8 3.412 29.462c1.934 9.016 8.252 20.438 9.224 29.463.932 8.653-1.45 20.715-2.877 29.462-1.458 8.93-5.403 20.522-6.742 29.462q-1.31 8.738-2.086 29.463h-1.863M385.216 242.038q-10.062-20.305-11.69-29.463c-1.516-8.52.398-20.665 1.209-29.462.818-8.88 2.937-20.627 4.219-29.463 1.282-8.841 3.367-20.587 4.33-29.463q.955-8.802 2.064-29.462h1.627q1.109 20.66 2.064 29.463c.963 8.875 3.048 20.62 4.33 29.462 1.282 8.836 3.401 20.583 4.22 29.463.81 8.797 2.724 20.943 1.209 29.462q-1.63 9.158-11.691 29.463h-1.89" fill-opacity=".25" stroke-linejoin="mitter" stroke-miterlimit="10"/><path fill="#F8CC03" stroke="#000" paint-order="fill stroke markers" d="M133.783 501.308q2.179-2.557 2.179-2.947c-2.447-1.378-12.637-2.062-12.637-2.946 0-.884 10.47-1.614 12.637-2.946 0-.436-3.05-2.063-3.05-2.947 0-.883 3.05-2.062 3.05-2.946 0-.884-3.05-2.062-3.05-2.946 0-.884 2.589-1.908 3.05-2.946 0-.73-.436-2.063-.436-2.947 0-.883.436-2.062.436-2.946 0-.884-.436-2.062-.436-2.946q0-.884.436-2.946.435 2.062.435 2.946c0 .884-.435 2.062-.435 2.946 0 .884.435 2.063.435 2.947 0 .883-.435 2.216-.435 2.946.46 1.038 3.05 2.062 3.05 2.946 0 .884-3.05 2.062-3.05 2.946 0 .884 3.05 2.063 3.05 2.946 0 .884-3.05 2.511-3.05 2.947 2.167 1.332 12.636 2.062 12.636 2.946 0 .884-10.19 1.568-12.636 2.946q0 .39 2.178 2.947h-4.357M262.325 448.275q3.61-8.25 3.61-11.785c0-3.536-4.12-8.452-3.61-11.785.573-3.738 5.503-8.047 7.22-11.785 1.533-3.333 2.785-8.19 3.611-11.785q.8-3.477 1.806-11.785 1.006 8.308 1.805 11.785c.826 3.594 2.078 8.452 3.61 11.785 1.718 3.738 6.648 8.047 7.22 11.785.511 3.333-3.61 8.25-3.61 11.785q0 3.535 3.61 11.785h-25.272M413.962 436.49q-1.415-8.232-1.738-11.785c-.32-3.518.994-8.76-.404-11.785-1.871-4.047-9.156-7.779-10.495-11.785-1.024-3.065 1.985-8.222 2.618-11.785.624-3.508 1.153-8.243 1.571-11.785.417-3.53.189-8.445 1.214-11.785q1.145-3.73 6.02-11.785h2.427q4.875 8.054 6.02 11.785c1.025 3.34.797 8.256 1.214 11.785.418 3.542.947 8.277 1.57 11.785.634 3.563 3.643 8.72 2.619 11.785-1.339 4.006-8.623 7.738-10.495 11.785-1.398 3.024-.085 8.267-.404 11.785q-.323 3.553-1.737 11.785" fill-opacity=".25" stroke-linejoin="mitter" stroke-miterlimit="10"/><path fill="none" stroke="#000" paint-order="fill stroke markers" d="M48.428 200.29h8.267v24.57h-8.267z" stroke-linejoin="mitter" stroke-miterlimit="10"/><path fill="none" stroke="#000" paint-order="fill stroke markers" d="M48.928 213.5h7.267M53.5 225v29m1.5.5h-4M53.5 201v-35m1.5.5h-4" stroke-miterlimit="10"/><path fill="none" stroke="#000" paint-order="fill stroke markers" d="M187.428 135.473h8.267v42.247h-8.267z" stroke-linejoin="mitter" stroke-miterlimit="10"/><path fill="none" stroke="#000" paint-order="fill stroke markers" d="M187.928 160.5h7.267M192.5 178v41m1.5.5h-4M192.5 136V95m1.5.5h-4" stroke-miterlimit="10"/><path fill="none" stroke="#000" paint-order="fill stroke markers" d="M326.428 100.118h8.267v42.247h-8.267z" stroke-linejoin="mitter" stroke-miterlimit="10"/><path fill="none" stroke="#000" paint-order="fill stroke markers" d="M326.928 124.5h7.267M331.5 142v36m1.5.5h-4M331.5 101V42m1.5.5h-4" stroke-miterlimit="10"/><path fill="none" stroke="#000" paint-order="fill stroke markers" d="M76.228 288.678h8.267v30.462h-8.267z" stroke-linejoin="mitter" stroke-miterlimit="10"/><path fill="none" stroke="#000" paint-order="fill stroke markers" d="M76.728 307.5h7.267M81.5 319v18m1.5.5h-4M81.5 290v-42m1.5.5h-4" stroke-miterlimit="10"/><path fill="none" stroke="#000" paint-order="fill stroke markers" d="M215.228 329.925h8.267v30.462h-8.267z" stroke-linejoin="mitter" stroke-miterlimit="10"/><path fill="none" stroke="#000" paint-order="fill stroke markers" d="M215.728 342.5h7.267M220.5 360v30m1.5.5h-4M220.5 331v-24m1.5.5h-4" stroke-miterlimit="10"/><path fill="none" stroke="#000" paint-order="fill stroke markers" d="M354.228 318.14h8.267v24.57h-8.267z" stroke-linejoin="mitter" stroke-miterlimit="10"/><path fill="none" stroke="#000" paint-order="fill stroke markers" d="M354.728 330.5h7.267M359.5 343v35m1.5.5h-4M359.5 319v-35m1.5.5h-4" stroke-miterlimit="10"/><path fill="none" stroke="#000" paint-order="fill stroke markers" d="M104.028 412.42h8.267v12.785h-8.267z" stroke-linejoin="mitter" stroke-miterlimit="10"/><path fill="none" stroke="#000" paint-order="fill stroke markers" d="M104.528 419.5h7.267M109.5 425v18m1.5.5h-4M109.5 413v-17m1.5.5h-4" stroke-miterlimit="10"/><path fill="none" stroke="#000" paint-order="fill stroke markers" d="M243.028 235.645h8.267V272h-8.267z" stroke-linejoin="mitter" stroke-miterlimit="10"/><path fill="none" stroke="#000" paint-order="fill stroke markers" d="M243.528 251.5h7.267M248.5 272v41m1.5.5h-4M248.5 237v-30m1.5.5h-4" stroke-miterlimit="10"/><g><path fill="none" stroke="#000" paint-order="fill stroke markers" d="M382.028 159.042h8.267v48.14h-8.267z" stroke-linejoin="mitter" stroke-miterlimit="10"/></g><path fill="none" stroke="#000" paint-order="fill stroke markers" d="M382.528 180.5h7.267M387.5 207v36m1.5.5h-4M387.5 160v-59m1.5.5h-4" stroke-miterlimit="10"/><g><path fill="none" stroke="#000" paint-order="fill stroke markers" d="M131.828 489.023h8.267v6.892h-8.267z" stroke-linejoin="mitter" stroke-miterlimit="10"/></g><path fill="none" stroke="#000" paint-order="fill stroke markers" d="M132.328 495.5h7.267M136.5 496v6m1.5.5h-4M136.5 490v-6m1.5.5h-4" stroke-miterlimit="10"/><g><path fill="none" stroke="#000" paint-order="fill stroke markers" d="M270.828 418.313h8.267v18.677h-8.267z" stroke-linejoin="mitter" stroke-miterlimit="10"/></g><path fill="none" stroke="#000" paint-order="fill stroke markers" d="M271.328 431.5h7.267M275.5 437v12m1.5.5h-4M275.5 419v-17m1.5.5h-4" stroke-miterlimit="10"/><g><path fill="none" stroke="#000" paint-order="fill stroke markers" d="M409.828 371.173h8.267v30.462h-8.267z" stroke-linejoin="mitter" stroke-miterlimit="10"/></g><path fill="none" stroke="#000" paint-order="fill stroke markers" d="M410.328 389.5h7.267M414.5 402v23m1.5.5h-4M414.5 372v-12m1.5.5h-4" stroke-miterlimit="10"/></g><text font-family="Arial" font-size="10" font-weight="bold" text-decoration="normal" text-anchor="end" dominant-baseline="central" transform="translate(18.362 507.2)">0</text><text font-family="Arial" font-size="10" font-weight="bold" text-decoration="normal" text-anchor="end" dominant-baseline="central" transform="translate(18.362 389.35)">2</text><text font-family="Arial" font-size="10" font-weight="bold" text-decoration="normal" text-anchor="end" dominant-baseline="central" transform="translate(18.362 271.5)">4</text><text font-family="Arial" font-size="10" font-weight="bold" text-decoration="normal" text-anchor="end" dominant-baseline="central" transform="translate(18.362 153.65)">6</text><text font-family="Arial" font-size="10" font-weight="bold" text-decoration="normal" text-anchor="end" dominant-baseline="central" transform="translate(18.362 35.8)">8</text><text font-family="Arial" font-size="10" text-decoration="normal" text-anchor="middle" dominant-baseline="central" transform="translate(236.51 533.4)">Species</text><text font-family="Arial" font-size="10" font-style="italic" text-decoration="normal" text-anchor="middle" dominant-baseline="central" transform="translate(97.462 516.8)">setosa</text><text font-family="Arial" font-size="10" font-style="italic" text-decoration="normal" text-anchor="middle" dominant-baseline="central" transform="translate(236.462 516.8)">versicolor</text><text font-family="Arial" font-size="10" font-style="italic" text-decoration="normal" text-anchor="middle" dominant-baseline="central" transform="translate(375.462 516.8)">virginica</text><text font-family="Arial" font-size="10" text-decoration="normal" text-anchor="middle" dominant-baseline="central" transform="translate(191.6 436.49)">Species with</text><text font-family="Arial" font-size="10" text-decoration="normal" text-anchor="middle" dominant-baseline="central" transform="translate(191.6 451.49)">lowest petal</text><text font-family="Arial" font-size="10" text-decoration="normal" text-anchor="middle" dominant-baseline="central" transform="translate(191.6 466.49)">width</text><path fill="none" stroke="#000" paint-order="fill stroke markers" d="M163.532 471.5h56.138M135.962 492.469L191.6 471.09" stroke-miterlimit="10"/><path fill="#FFF" paint-order="stroke fill markers" d="M444.5 239.5h90v64h-90z"/><path fill="#FE296C" stroke="#000" paint-order="fill stroke markers" d="M447.76 242.6h11v11h-11z" stroke-linejoin="mitter" stroke-miterlimit="10"/><text font-family="Arial" font-size="10" text-decoration="normal" dominant-baseline="central" transform="translate(468.26 248.1)">Sepal.Length</text><path fill="#487EB6" stroke="#000" paint-order="fill stroke markers" d="M447.76 257.6h11v11h-11z" stroke-linejoin="mitter" stroke-miterlimit="10"/><text font-family="Arial" font-size="10" text-decoration="normal" dominant-baseline="central" transform="translate(468.26 263.1)">Sepal.Width</text><path fill="#A7CE31" stroke="#000" paint-order="fill stroke markers" d="M447.76 272.6h11v11h-11z" stroke-linejoin="mitter" stroke-miterlimit="10"/><g><text font-family="Arial" font-size="10" text-decoration="normal" dominant-baseline="central" transform="translate(468.26 278.1)">Petal.Length</text></g><g><path fill="#F8CC03" stroke="#000" paint-order="fill stroke markers" d="M447.76 287.6h11v11h-11z" stroke-linejoin="mitter" stroke-miterlimit="10"/></g><g><text font-family="Arial" font-size="10" text-decoration="normal" dominant-baseline="central" transform="translate(468.26 293.1)">Petal.Width</text></g><g><text font-family="Arial" font-size="23" text-decoration="normal" text-anchor="middle" dominant-baseline="central" transform="translate(270 14.7)">Iris flower data set</text></g></svg>